<svg xmlns="http://www.w3.org/2000/svg" width="960" height="540" viewBox="0 0 960 540" role="img" aria-labelledby="title desc">
  <title id="title">Repository overview visual</title>
  <desc id="desc">A clean visual summary of the completed 45-day IT Help Desk learning repository.</desc>
  <rect width="960" height="540" fill="#f8fafc"/>
  <rect x="70" y="64" width="820" height="412" rx="18" fill="#ffffff" stroke="#dbe3ef"/>
  <rect x="70" y="64" width="820" height="72" rx="18" fill="#0f172a"/>
  <text x="104" y="109" fill="#ffffff" font-family="Arial, sans-serif" font-size="28" font-weight="700">45-Day IT Help Desk Learning Journey</text>
  <rect x="104" y="168" width="222" height="84" rx="12" fill="#eff6ff" stroke="#bfdbfe"/>
  <text x="128" y="201" fill="#1d4ed8" font-family="Arial, sans-serif" font-size="18" font-weight="700">Progress</text>
  <text x="128" y="231" fill="#0f172a" font-family="Arial, sans-serif" font-size="28" font-weight="700">45 / 45</text>
  <rect x="369" y="168" width="222" height="84" rx="12" fill="#ecfdf5" stroke="#bbf7d0"/>
  <text x="393" y="201" fill="#15803d" font-family="Arial, sans-serif" font-size="18" font-weight="700">Status</text>
  <text x="393" y="231" fill="#0f172a" font-family="Arial, sans-serif" font-size="28" font-weight="700">Completed</text>
  <rect x="634" y="168" width="222" height="84" rx="12" fill="#f5f3ff" stroke="#ddd6fe"/>
  <text x="658" y="201" fill="#6d28d9" font-family="Arial, sans-serif" font-size="18" font-weight="700">Learning Logs</text>
  <text x="658" y="231" fill="#0f172a" font-family="Arial, sans-serif" font-size="28" font-weight="700">45 Files</text>
  <rect x="104" y="292" width="752" height="38" rx="8" fill="#e2e8f0"/>
  <rect x="104" y="292" width="752" height="38" rx="8" fill="#2563eb"/>
  <text x="445" y="318" fill="#ffffff" font-family="Arial, sans-serif" font-size="18" font-weight="700">100%</text>
  <text x="104" y="376" fill="#334155" font-family="Arial, sans-serif" font-size="20" font-weight="700">Core evidence</text>
  <text x="104" y="412" fill="#475569" font-family="Arial, sans-serif" font-size="16">README, progress tracker, final summary, and daily support logs</text>
  <text x="104" y="442" fill="#475569" font-family="Arial, sans-serif" font-size="16">Windows, networking, Microsoft 365, Active Directory, PowerShell, security, and ticketing</text>
</svg>
